<?xml version="1.0" encoding="UTF-8"?>
<svg width="500px" height="398px" viewBox="0 0 500 398" version="1.1" xmlns="http://www.w3.org/2000/svg" xmlns:xlink="http://www.w3.org/1999/xlink">
    <!-- Generator: Sketch 49.2 (51160) - http://www.bohemiancoding.com/sketch -->
    <title>listening_bot</title>
    <desc>Created with Sketch.</desc>
    <defs></defs>
    <g id="Page-1" stroke="none" stroke-width="1" fill="none" fill-rule="evenodd">
        <g id="listening_bot" transform="translate(0.000000, -1.000000)" fill="#000000" fill-rule="nonzero">
            <g id="Group">
                <path d="M320.727778,98.6333333 L334.044444,109.166667 C362.055556,73.7444444 346.294444,35.0944444 334.044444,19.6 L320.711111,30.1055556 C321.088889,30.5888889 324.35,34.8666667 327.388889,41.6388889 C332.272222,52.5166667 336.544444,69.8277778 327.388889,88.1944444 C325.661111,91.6444444 323.488889,95.1388889 320.727778,98.6333333 Z" id="Shape"></path>
                <path d="M358.066667,117.283333 L371.794444,127.266667 C416.994444,65.0944444 372.25,2.12222222 371.794444,1.48888889 L358.05,11.4555556 C358.477778,12.05 361.522222,16.3833333 364.927778,23.4 C373.072222,40.1888889 383.277778,72.4333333 364.927778,106.366667 C362.966667,109.994444 360.716667,113.638889 358.066667,117.283333 Z" id="Shape"></path>
                <path d="M179.288889,30.1055556 L165.955556,19.6 C153.705556,35.0888889 137.95,73.7444444 165.955556,109.166667 L179.272222,98.6333333 C176.511111,95.1388889 174.338889,91.65 172.616667,88.1944444 C163.455556,69.8277778 167.733333,52.5111111 172.616667,41.6333333 C175.65,34.8611111 178.911111,30.5888889 179.288889,30.1055556 Z" id="Shape"></path>
                <path d="M141.95,11.4555556 L135.072222,6.47777778 L128.211111,1.48888889 C127.755556,2.11666667 83.0111111,65.0944444 128.211111,127.266667 L141.938889,117.283333 C139.288889,113.633333 137.033333,109.988889 135.072222,106.366667 C116.727778,72.4388889 126.927778,40.1944444 135.072222,23.4055556 C138.477778,16.3833333 141.522222,12.0555556 141.95,11.4555556 Z" id="Shape"></path>
                <path d="M26.1722222,302.466667 C37.4888889,302.466667 47.0611111,295.2 50.7,285.122222 L54.9944444,285.122222 C57.9833333,313.3 75.1055556,337.283333 99.1166667,349.911111 L99.1166667,359.95 C99.1166667,381.211111 116.416667,398.505556 137.672222,398.505556 L362.333333,398.505556 C383.594444,398.505556 400.888889,381.205556 400.888889,359.95 L400.888889,349.911111 C424.894444,337.283333 442.022222,313.3 445.005556,285.122222 L449.3,285.122222 C452.938889,295.2 462.511111,302.466667 473.827778,302.466667 C488.255556,302.466667 500,290.727778 500,276.294444 C500,261.861111 488.261111,250.122222 473.827778,250.122222 C462.511111,250.122222 452.938889,257.388889 449.3,267.466667 L445.005556,267.466667 C442.016667,239.288889 424.894444,215.305556 400.888889,202.677778 L400.888889,192.638889 C400.888889,171.377778 383.588889,154.083333 362.333333,154.083333 L255.377778,154.083333 L255.377778,105.066667 C274.116667,101.005556 288.205556,84.3166667 288.205556,64.3777778 C288.205556,41.4111111 269.522222,22.7277778 246.555556,22.7277778 C223.588889,22.7277778 204.905556,41.4111111 204.905556,64.3777778 C204.905556,84.3166667 218.994444,101.005556 237.733333,105.066667 L237.733333,154.083333 L137.672222,154.083333 C116.411111,154.083333 99.1166667,171.383333 99.1166667,192.638889 L99.1166667,202.677778 C75.1111111,215.305556 57.9833333,239.288889 54.9944444,267.466667 L50.7,267.466667 C47.0611111,257.388889 37.4888889,250.122222 26.1722222,250.122222 C11.7388889,250.127778 0,261.866667 0,276.294444 C0,290.722222 11.7388889,302.466667 26.1722222,302.466667 Z M473.827778,267.777778 C478.527778,267.777778 482.35,271.6 482.35,276.3 C482.35,281 478.527778,284.822222 473.827778,284.822222 C469.127778,284.822222 465.305556,281 465.305556,276.3 C465.305556,271.6 469.133333,267.777778 473.827778,267.777778 Z M400.888889,223.455556 C417.188889,235.383333 427.838889,254.6 427.838889,276.3 C427.838889,298 417.188889,317.216667 400.888889,329.144444 L400.888889,223.455556 Z M222.55,64.3777778 C222.55,51.1444444 233.316667,40.3722222 246.555556,40.3722222 C259.794444,40.3722222 270.555556,51.1388889 270.555556,64.3777778 C270.555556,77.6166667 259.788889,88.3777778 246.555556,88.3777778 C233.322222,88.3777778 222.55,77.6166667 222.55,64.3777778 Z M116.761111,192.644444 C116.761111,181.116667 126.144444,171.733333 137.672222,171.733333 L362.333333,171.733333 C373.861111,171.733333 383.244444,181.116667 383.244444,192.644444 L383.244444,359.95 C383.244444,371.477778 373.861111,380.861111 362.333333,380.861111 L137.672222,380.861111 C126.144444,380.861111 116.761111,371.477778 116.761111,359.95 L116.761111,192.644444 Z M99.1111111,223.45 L99.1111111,329.138889 C82.8111111,317.211111 72.1555556,297.994444 72.1555556,276.294444 C72.1555556,254.594444 82.8111111,235.377778 99.1111111,223.45 Z M26.1722222,267.777778 C30.8722222,267.777778 34.6888889,271.6 34.6888889,276.3 C34.6888889,281 30.8666667,284.822222 26.1722222,284.822222 C21.4777778,284.822222 17.65,281 17.65,276.3 C17.65,271.6 21.4722222,267.777778 26.1722222,267.777778 Z" id="Shape"></path>
                <path d="M208.366667,321.783333 L216.444444,321.783333 C225.127778,321.783333 232.227778,314.677778 232.227778,306 L232.227778,246.6 C232.227778,237.916667 225.122222,230.816667 216.444444,230.816667 L208.366667,230.816667 C199.683333,230.816667 192.583333,237.922222 192.583333,246.6 L192.583333,306 C192.577778,314.677778 199.683333,321.783333 208.366667,321.783333 Z" id="Shape"></path>
                <path d="M283.555556,321.783333 L291.633333,321.783333 C300.316667,321.783333 307.416667,314.677778 307.416667,306 L307.416667,246.6 C307.416667,237.916667 300.311111,230.816667 291.633333,230.816667 L283.555556,230.816667 C274.872222,230.816667 267.772222,237.922222 267.772222,246.6 L267.772222,306 C267.772222,314.677778 274.877778,321.783333 283.555556,321.783333 Z" id="Shape"></path>
                <path d="M171.766667,358.861111 L328.227778,358.861111 C346.427778,358.861111 361.233333,344.055556 361.233333,325.855556 L361.233333,226.744444 C361.233333,208.544444 346.427778,193.738889 328.227778,193.738889 L171.766667,193.738889 C153.566667,193.738889 138.761111,208.544444 138.761111,226.744444 L138.761111,325.855556 C138.761111,344.055556 153.566667,358.861111 171.766667,358.861111 Z M156.411111,226.738889 C156.411111,218.272222 163.3,211.377778 171.772222,211.377778 L328.233333,211.377778 C336.7,211.377778 343.588889,218.266667 343.588889,226.738889 L343.588889,325.85 C343.588889,334.316667 336.7,341.211111 328.233333,341.211111 L171.766667,341.211111 C163.3,341.211111 156.405556,334.322222 156.405556,325.85 L156.405556,226.738889 L156.411111,226.738889 Z" id="Shape"></path>
            </g>
        </g>
    </g>
</svg>