<?xml version="1.0" encoding="UTF-8"?>
<svg width="500px" height="514px" viewBox="0 0 500 514" version="1.1" xmlns="http://www.w3.org/2000/svg" xmlns:xlink="http://www.w3.org/1999/xlink">
    <!-- Generator: Sketch 49.2 (51160) - http://www.bohemiancoding.com/sketch -->
    <title>question_bot</title>
    <desc>Created with Sketch.</desc>
    <defs></defs>
    <g id="Page-1" stroke="none" stroke-width="1" fill="none" fill-rule="evenodd">
        <g id="question_bot" transform="translate(0.000000, -31.000000)" fill="#000000">
            <g id="Group">
                <path d="M26.1722222,448.466667 C37.4888889,448.466667 47.0611111,441.2 50.7,431.122222 L54.9944444,431.122222 C57.9833333,459.3 75.1055556,483.283333 99.1166667,495.911111 L99.1166667,505.95 C99.1166667,527.211111 116.416667,544.505556 137.672222,544.505556 L362.333333,544.505556 C383.594444,544.505556 400.888889,527.205556 400.888889,505.95 L400.888889,495.911111 C424.894444,483.283333 442.022222,459.3 445.005556,431.122222 L449.3,431.122222 C452.938889,441.2 462.511111,448.466667 473.827778,448.466667 C488.255556,448.466667 500,436.727778 500,422.294444 C500,407.861111 488.261111,396.122222 473.827778,396.122222 C462.511111,396.122222 452.938889,403.388889 449.3,413.466667 L445.005556,413.466667 C442.016667,385.288889 424.894444,361.305556 400.888889,348.677778 L400.888889,338.638889 C400.888889,317.377778 383.588889,300.083333 362.333333,300.083333 L255.377778,300.083333 L255.377778,251.066667 C274.116667,247.005556 288.205556,230.316667 288.205556,210.377778 C288.205556,187.411111 269.522222,168.727778 246.555556,168.727778 C223.588889,168.727778 204.905556,187.411111 204.905556,210.377778 C204.905556,230.316667 218.994444,247.005556 237.733333,251.066667 L237.733333,300.083333 L137.672222,300.083333 C116.411111,300.083333 99.1166667,317.383333 99.1166667,338.638889 L99.1166667,348.677778 C75.1111111,361.305556 57.9833333,385.288889 54.9944444,413.466667 L50.7,413.466667 C47.0611111,403.388889 37.4888889,396.122222 26.1722222,396.122222 C11.7388889,396.127778 0,407.866667 0,422.294444 C0,436.722222 11.7388889,448.466667 26.1722222,448.466667 Z M473.827778,413.777778 C478.527778,413.777778 482.35,417.6 482.35,422.3 C482.35,427 478.527778,430.822222 473.827778,430.822222 C469.127778,430.822222 465.305556,427 465.305556,422.3 C465.305556,417.6 469.133333,413.777778 473.827778,413.777778 Z M400.888889,369.455556 C417.188889,381.383333 427.838889,400.6 427.838889,422.3 C427.838889,444 417.188889,463.216667 400.888889,475.144444 L400.888889,369.455556 Z M222.55,210.377778 C222.55,197.144444 233.316667,186.372222 246.555556,186.372222 C259.794444,186.372222 270.555556,197.138889 270.555556,210.377778 C270.555556,223.616667 259.788889,234.377778 246.555556,234.377778 C233.322222,234.377778 222.55,223.616667 222.55,210.377778 Z M116.761111,338.644444 C116.761111,327.116667 126.144444,317.733333 137.672222,317.733333 L362.333333,317.733333 C373.861111,317.733333 383.244444,327.116667 383.244444,338.644444 L383.244444,505.95 C383.244444,517.477778 373.861111,526.861111 362.333333,526.861111 L137.672222,526.861111 C126.144444,526.861111 116.761111,517.477778 116.761111,505.95 L116.761111,338.644444 Z M99.1111111,369.45 L99.1111111,475.138889 C82.8111111,463.211111 72.1555556,443.994444 72.1555556,422.294444 C72.1555556,400.594444 82.8111111,381.377778 99.1111111,369.45 Z M26.1722222,413.777778 C30.8722222,413.777778 34.6888889,417.6 34.6888889,422.3 C34.6888889,427 30.8666667,430.822222 26.1722222,430.822222 C21.4777778,430.822222 17.65,427 17.65,422.3 C17.65,417.6 21.4722222,413.777778 26.1722222,413.777778 Z" id="Shape" fill-rule="nonzero"></path>
                <path d="M208.366667,467.783333 L216.444444,467.783333 C225.127778,467.783333 232.227778,460.677778 232.227778,452 L232.227778,392.6 C232.227778,383.916667 225.122222,376.816667 216.444444,376.816667 L208.366667,376.816667 C199.683333,376.816667 192.583333,383.922222 192.583333,392.6 L192.583333,452 C192.577778,460.677778 199.683333,467.783333 208.366667,467.783333 Z" id="Shape" fill-rule="nonzero"></path>
                <path d="M283.555556,467.783333 L291.633333,467.783333 C300.316667,467.783333 307.416667,460.677778 307.416667,452 L307.416667,392.6 C307.416667,383.916667 300.311111,376.816667 291.633333,376.816667 L283.555556,376.816667 C274.872222,376.816667 267.772222,383.922222 267.772222,392.6 L267.772222,452 C267.772222,460.677778 274.877778,467.783333 283.555556,467.783333 Z" id="Shape" fill-rule="nonzero"></path>
                <path d="M171.766667,504.861111 L328.227778,504.861111 C346.427778,504.861111 361.233333,490.055556 361.233333,471.855556 L361.233333,372.744444 C361.233333,354.544444 346.427778,339.738889 328.227778,339.738889 L171.766667,339.738889 C153.566667,339.738889 138.761111,354.544444 138.761111,372.744444 L138.761111,471.855556 C138.761111,490.055556 153.566667,504.861111 171.766667,504.861111 Z M156.411111,372.738889 C156.411111,364.272222 163.3,357.377778 171.772222,357.377778 L328.233333,357.377778 C336.7,357.377778 343.588889,364.266667 343.588889,372.738889 L343.588889,471.85 C343.588889,480.316667 336.7,487.211111 328.233333,487.211111 L171.766667,487.211111 C163.3,487.211111 156.405556,480.322222 156.405556,471.85 L156.405556,372.738889 L156.411111,372.738889 Z" id="Shape" fill-rule="nonzero"></path>
                <text id="?" font-family="ArialRoundedMTBold, Arial Rounded MT Bold" font-size="144" font-weight="normal">
                    <tspan x="210" y="136">?</tspan>
                </text>
                <text id="?" font-family="ArialRoundedMTBold, Arial Rounded MT Bold" font-size="144" font-weight="normal">
                    <tspan x="99" y="192">?</tspan>
                </text>
                <text id="?" font-family="ArialRoundedMTBold, Arial Rounded MT Bold" font-size="144" font-weight="normal">
                    <tspan x="318" y="187">?</tspan>
                </text>
            </g>
        </g>
    </g>
</svg>