<?xml version="1.0" encoding="UTF-8"?>
<svg width="500px" height="440px" viewBox="0 0 500 440" version="1.1" xmlns="http://www.w3.org/2000/svg" xmlns:xlink="http://www.w3.org/1999/xlink">
    <!-- Generator: Sketch 49.2 (51160) - http://www.bohemiancoding.com/sketch -->
    <title>thinking_bot</title>
    <desc>Created with Sketch.</desc>
    <defs></defs>
    <g id="Page-1" stroke="none" stroke-width="1" fill="none" fill-rule="evenodd">
        <g id="thinking_bot" transform="translate(0.000000, -2.000000)" fill="#000000" fill-rule="nonzero">
            <g id="Group">
                <polygon id="Shape" points="304.005556 34.3 312.827778 34.3 321.65 34.3 321.65 2.84444444 304.005556 2.84444444"></polygon>
                <polygon id="Shape" points="392.483333 82.4944444 392.483333 73.6722222 361.027778 73.6722222 361.027778 82.4944444 361.027778 91.3222222 392.483333 91.3222222"></polygon>
                <polygon id="Shape" points="233.172222 82.4944444 233.172222 91.3222222 264.633333 91.3222222 264.633333 73.6722222 233.172222 73.6722222"></polygon>
                <polygon id="Shape" points="369.155556 26.1722222 362.916667 19.9333333 340.672222 42.1777778 353.15 54.6611111 375.394444 32.4111111"></polygon>
                <polygon id="Shape" points="284.988889 42.1777778 262.744444 19.9333333 256.505556 26.1722222 250.266667 32.4111111 272.511111 54.6611111"></polygon>
                <path d="M26.1666667,345.561111 C37.4833333,345.561111 47.0555556,338.294444 50.6944444,328.216667 L54.9888889,328.216667 C57.9777778,356.394444 75.1,380.377778 99.1111111,393.005556 L99.1111111,403.044444 C99.1111111,424.305556 116.411111,441.6 137.666667,441.6 L362.322222,441.6 C383.583333,441.6 400.877778,424.3 400.877778,403.044444 L400.877778,393.005556 C424.883333,380.377778 442.011111,356.394444 445,328.216667 L449.294444,328.216667 C452.933333,338.294444 462.505556,345.561111 473.822222,345.561111 C488.25,345.561111 499.994444,333.822222 499.994444,319.388889 C499.994444,304.961111 488.255556,293.216667 473.822222,293.216667 C462.505556,293.216667 452.933333,300.483333 449.294444,310.561111 L445,310.561111 C442.011111,282.383333 424.888889,258.4 400.877778,245.772222 L400.877778,235.733333 C400.877778,214.472222 383.577778,197.177778 362.322222,197.177778 L260.65,197.177778 L260.705556,190.316667 L260.911111,163.977778 L274.944444,167.472222 L316.666667,177.85 L319.261111,118.627778 C336.45,115.572222 349.555556,100.55 349.555556,82.5 C349.555556,62.2444444 333.077778,45.7666667 312.822222,45.7666667 C292.572222,45.7666667 276.094444,62.2444444 276.094444,82.5 C276.094444,98.8555556 286.844444,112.733333 301.644444,117.477778 L301.305556,125.188889 L299.977778,155.516667 L284.761111,151.727778 L243.444444,141.444444 L243.005556,197.183333 L137.672222,197.183333 C116.411111,197.183333 99.1166667,214.483333 99.1166667,235.738889 L99.1166667,245.777778 C75.1111111,258.405556 57.9833333,282.388889 54.9944444,310.566667 L50.7,310.566667 C47.0611111,300.488889 37.4888889,293.222222 26.1666667,293.222222 C11.7388889,293.222222 0,304.961111 0,319.388889 C0,333.822222 11.7388889,345.561111 26.1666667,345.561111 Z M473.827778,310.872222 C478.527778,310.872222 482.35,314.694444 482.35,319.394444 C482.35,324.094444 478.527778,327.916667 473.827778,327.916667 C469.127778,327.916667 465.305556,324.094444 465.305556,319.394444 C465.311111,314.694444 469.133333,310.872222 473.827778,310.872222 Z M400.883333,266.544444 C417.183333,278.472222 427.838889,297.688889 427.838889,319.388889 C427.838889,341.088889 417.188889,360.305556 400.883333,372.233333 L400.883333,266.544444 Z M293.75,82.5 C293.75,71.9777778 302.311111,63.4166667 312.827778,63.4166667 C323.35,63.4166667 331.911111,71.9777778 331.911111,82.5 C331.911111,93.0222222 323.35,101.577778 312.827778,101.577778 C302.305556,101.577778 293.75,93.0166667 293.75,82.5 Z M116.761111,235.738889 C116.761111,224.211111 126.144444,214.827778 137.672222,214.827778 L362.327778,214.827778 C373.855556,214.827778 383.238889,224.211111 383.238889,235.738889 L383.238889,403.044444 C383.238889,414.572222 373.855556,423.955556 362.327778,423.955556 L137.672222,423.955556 C126.144444,423.955556 116.761111,414.572222 116.761111,403.044444 L116.761111,235.738889 Z M99.1111111,266.544444 L99.1111111,372.233333 C82.8111111,360.305556 72.1555556,341.088889 72.1555556,319.388889 C72.1611111,297.688889 82.8111111,278.472222 99.1111111,266.544444 Z M26.1666667,310.872222 C30.8666667,310.872222 34.6888889,314.694444 34.6888889,319.394444 C34.6888889,324.094444 30.8666667,327.916667 26.1666667,327.916667 C21.4666667,327.916667 17.65,324.094444 17.65,319.394444 C17.65,314.694444 21.4666667,310.872222 26.1666667,310.872222 Z" id="Shape"></path>
                <path d="M208.366667,364.872222 L216.444444,364.872222 C225.127778,364.872222 232.227778,357.766667 232.227778,349.088889 L232.227778,289.688889 C232.227778,281.005556 225.122222,273.905556 216.444444,273.905556 L208.366667,273.905556 C199.683333,273.905556 192.583333,281.011111 192.583333,289.688889 L192.583333,349.088889 C192.577778,357.772222 199.683333,364.872222 208.366667,364.872222 Z" id="Shape"></path>
                <path d="M283.555556,364.872222 L291.633333,364.872222 C300.316667,364.872222 307.416667,357.766667 307.416667,349.088889 L307.416667,289.688889 C307.416667,281.005556 300.311111,273.905556 291.633333,273.905556 L283.555556,273.905556 C274.872222,273.905556 267.772222,281.011111 267.772222,289.688889 L267.772222,349.088889 C267.772222,357.772222 274.877778,364.872222 283.555556,364.872222 Z" id="Shape"></path>
                <path d="M171.766667,401.955556 L328.227778,401.955556 C346.427778,401.955556 361.233333,387.15 361.233333,368.95 L361.233333,269.833333 C361.233333,251.633333 346.427778,236.827778 328.227778,236.827778 L171.766667,236.827778 C153.566667,236.827778 138.761111,251.633333 138.761111,269.833333 L138.761111,368.944444 C138.761111,387.144444 153.566667,401.955556 171.766667,401.955556 Z M156.411111,269.833333 C156.411111,261.366667 163.3,254.472222 171.772222,254.472222 L328.233333,254.472222 C336.7,254.472222 343.594444,261.361111 343.594444,269.833333 L343.594444,368.944444 C343.594444,377.411111 336.705556,384.305556 328.233333,384.305556 L171.766667,384.305556 C163.3,384.305556 156.405556,377.416667 156.405556,368.944444 L156.405556,269.833333 L156.411111,269.833333 Z" id="Shape"></path>
            </g>
        </g>
    </g>
</svg>